Coordinates
version=1
nRows=26
nColumns=24
inDegrees=yes

Units are S.I. units (second, meters, Newtons, ...)
Angles are in degrees.

endheader
time	pelvis_tilt	pelvis_list	pelvis_rotation	pelvis_tx	pelvis_ty	pelvis_tz	hip_flexion_r	hip_adduction_r	hip_rotation_r	knee_angle_r	ankle_angle_r	subtalar_angle_r	mtp_angle_r	hip_flexion_l	hip_adduction_l	hip_rotation_l	knee_angle_l	ankle_angle_l	subtalar_angle_l	mtp_angle_l	lumbar_extension	lumbar_bending	lumbar_rotation
      0.85033333	      6.00319560	     -3.90967437	      9.70496423	     -0.50700245	      1.03756841	      0.34964892	      3.99878567	     10.64591265	     -2.15302632	    -13.69584296	      2.39959299	    -14.54512749	      6.11349573	     13.58791770	     -8.30999980	      1.08708528	    -67.32618012	     -0.73846757	     -4.88991966	     -0.98557683	     -8.26915083	      0.67129816	     -2.06539792
      0.85450000	      6.00543784	     -3.79891027	      9.65433918	     -0.50222634	      1.03835330	      0.34992251	      3.53372538	     10.57928902	     -2.14712643	    -13.40825720	      2.54002596	    -14.33809018	      6.11317200	     14.03287713	     -8.09900051	      1.07483574	    -66.87359357	     -0.01729730	     -4.84014470	     -1.06198388	     -8.35006329	      0.54133486	     -1.92445298
      0.85866667	      5.99826771	     -3.69604988	      9.58726126	     -0.49744678	      1.03907720	      0.35020739	      3.08134917	     10.51983509	     -2.12810612	    -13.12563166	      2.68651209	    -14.13018712	      6.11233072	     14.47350407	     -7.89959550	      1.04046457	    -66.37500012	      0.64950261	     -4.78807580	     -1.14144850	     -8.41727759	      0.41709849	     -1.76368083
      0.86283333	      5.99080024	     -3.59297309	      9.50059573	     -0.49266305	      1.03980225	      0.35050094	      2.62603507	     10.45917157	     -2.08929549	    -12.83929274	      2.82492862	    -13.92170069	      6.10947002	     14.89052609	     -7.69996548	      0.99121460	    -65.81598134	      1.27092043	     -4.75703693	     -1.22377200	     -8.47719212	      0.29221569	     -1.58498023
      0.86700000	      5.96844324	     -3.47677774	      9.39064849	     -0.48791047	      1.04047840	      0.35079993	      2.19392863	     10.38021322	     -2.02460391	    -12.57097748	      2.93322931	    -13.75393554	      6.10724502	     15.30066050	     -7.47973093	      0.92449761	    -65.20137908	      1.84752751	     -4.77173976	     -1.27027075	     -8.54020107	      0.16193619	     -1.44200098
      0.87116667	      5.96586191	     -3.37459092	      9.26766321	     -0.48314223	      1.04114260	      0.35110915	      1.73580838	     10.31926524	     -1.94300229	    -12.29156491	      3.06874815	    -13.55903708	      6.10451894	     15.67252017	     -7.28695978	      0.83980012	    -64.53768822	      2.39487096	     -4.74053195	     -1.32061860	     -8.60776797	      0.03934647	     -1.24034822
      0.87533333	      5.98627678	     -3.28139167	      9.13714129	     -0.47835734	      1.04180981	      0.35142816	      1.24467060	     10.27117162	     -1.85563204	    -11.99332243	      3.22328629	    -13.33965736	      6.09698913	     16.00253649	     -7.11544408	      0.74147686	    -63.82305777	      2.87892387	     -4.70936037	     -1.39551068	     -8.68032137	     -0.07591714	     -0.96399884
      0.87950000	      5.97600609	     -3.18782659	      8.98267550	     -0.47359567	      1.04240265	      0.35176016	      0.79768632	     10.21535005	     -1.73851576	    -11.71799527	      3.35002994	    -13.16069486	      6.08649257	     16.34559854	     -6.93789167	      0.62621509	    -63.05704322	      3.33769717	     -4.71320670	     -1.46372663	     -8.73078455	     -0.18885881	     -0.72584490
      0.88366667	      5.96300472	     -3.09514587	      8.81065302	     -0.46884711	      1.04295821	      0.35209216	      0.35929525	     10.15584167	     -1.60928213	    -11.45413191	      3.46752120	    -12.96646402	      6.06732292	     16.67156772	     -6.76167087	      0.49769392	    -62.24135402	      3.76301634	     -4.74362348	     -1.55387705	     -8.78662102	     -0.29738667	     -0.43824801
      0.88783333	      5.96041381	     -2.99305282	      8.62073060	     -0.46408321	      1.04351278	      0.35245565	     -0.09592383	     10.08829938	     -1.44900867	    -11.18540507	      3.59822019	    -12.80884946	      6.05080771	     16.95801210	     -6.58679876	      0.34335023	    -61.36277517	      4.13480788	     -4.76233479	     -1.61738438	     -8.84194312	     -0.42084731	     -0.19353443
      0.89200000	      5.94090239	     -2.90155763	      8.41802529	     -0.45932684	      1.04399160	      0.35282671	     -0.52493389	     10.02629392	     -1.27881073	    -10.92855577	      3.72211104	    -12.65514619	      6.03297990	     17.24854368	     -6.42448369	      0.17774256	    -60.44249350	      4.47712440	     -4.79849775	     -1.67254714	     -8.87535203	     -0.53423096	      0.07370993
      0.89616667	      5.93657433	     -2.81495221	      8.20206927	     -0.45457604	      1.04447686	      0.35320209	     -0.97064502	      9.96844277	     -1.08709048	    -10.66817424	      3.82658770	    -12.49202520	      6.00785210	     17.50050872	     -6.27243346	      0.00288140	    -59.46732612	      4.78798042	     -4.85646806	     -1.73329084	     -8.93719278	     -0.63917350	      0.37892999
      0.90033333	      5.89203766	     -2.72542601	      7.96105908	     -0.44983463	      1.04484956	      0.35360347	     -1.35677533	      9.89770064	     -0.87774706	    -10.44419682	      3.94467035	    -12.36811491	      5.99407248	     17.77576206	     -6.11994770	     -0.20269217	    -58.44631224	      5.06166725	     -4.91756043	     -1.76431735	     -8.94865827	     -0.75222867	      0.58325130
      0.90450000	      5.90543397	     -2.64929052	      7.72960071	     -0.44506574	      1.04528261	      0.35399445	     -1.82441953	      9.84793808	     -0.66682848	    -10.17565687	      4.06846657	    -12.21588450	      5.96676893	     17.96932052	     -5.99324836	     -0.39993542	    -57.37249184	      5.28031837	     -5.00259571	     -1.81534084	     -9.00249602	     -0.84751730	      0.96609411
      0.90866667	      5.87784771	     -2.57992158	      7.47951201	     -0.44031498	      1.04560937	      0.35440037	     -2.23028493	      9.79542655	     -0.43759109	     -9.94065975	      4.18339482	    -12.08572496	      5.93491813	     18.19127168	     -5.87131898	     -0.61170518	    -56.25714817	      5.47521609	     -5.09909287	     -1.86662408	     -9.01913694	     -0.93652031	      1.28866834
      0.91283333	      5.82920769	     -2.50301488	      7.20529362	     -0.43557096	      1.04587377	      0.35482920	     -2.60100582	      9.72642360	     -0.18547402	     -9.73599126	      4.29848236	    -11.96596619	      5.91466525	     18.40947610	     -5.74574861	     -0.84908674	    -55.08931595	      5.64334632	     -5.20296805	     -1.90003249	     -9.03127094	     -1.03965677	      1.51835448
      0.91700000	      5.82205143	     -2.43708890	      6.95012362	     -0.43079806	      1.04617349	      0.35521481	     -3.03553085	      9.67185687	      0.05510611	     -9.48415978	      4.40767270	    -11.82654038	      5.87292877	     18.56451968	     -5.62945599	     -1.06110398	    -53.87023040	      5.74947525	     -5.36441820	     -1.96050623	     -9.05797255	     -1.12041312	      1.93279431
      0.92116667	      5.77991995	     -2.37754729	      6.67458593	     -0.42603102	      1.04636896	      0.35562829	     -3.41332527	      9.61550242	      0.31130688	     -9.27359715	      4.53339235	    -11.71047594	      5.83027291	     18.73921692	     -5.52396273	     -1.29491823	    -52.61071607	      5.82927348	     -5.52267405	     -2.02119662	     -9.05074908	     -1.20154039	      2.25964240
      0.92533333	      5.73920365	     -2.32759573	      6.39691650	     -0.42125762	      1.04652214	      0.35604545	     -3.79093683	      9.56685984	      0.56912845	     -9.06220569	      4.66402835	    -11.60698397	      5.78937940	     18.89535620	     -5.43382195	     -1.53647721	    -51.30866075	      5.87860729	     -5.69850265	     -2.08010751	     -9.03438416	     -1.27261505	      2.57084906
      0.92950000	      5.69023986	     -2.28362404	      6.11713278	     -0.41647347	      1.04664254	      0.35644361	     -4.15750472	      9.51866229	      0.83565442	     -8.85405029	      4.78400196	    -11.49589027	      5.74494061	     19.03835674	     -5.34527309	     -1.77099440	    -49.95714987	      5.89516995	     -5.90174454	     -2.14443379	     -9.01363217	     -1.33275408	      2.89484863
      0.93366667	      5.63851404	     -2.23828060	      5.83203105	     -0.41169101	      1.04672339	      0.35683224	     -4.51674535	      9.46379227	      1.10814860	     -8.65443406	      4.90380841	    -11.38005731	      5.69315580	     19.16161312	     -5.25350184	     -2.00496415	    -48.55707395	      5.88048391	     -6.13070740	     -2.21944483	     -8.99465318	     -1.39235475	      3.23136768
      0.93783333	      5.56181233	     -2.20241044	      5.53278914	     -0.40690749	      1.04671128	      0.35724962	     -4.83153395	      9.41422893	      1.39221314	     -8.49270462	      5.04604317	    -11.28879557	      5.66093176	     19.29446782	     -5.17949787	     -2.26114752	    -47.12035050	      5.85388760	     -6.33781485	     -2.27300004	     -8.94639028	     -1.45311211	      3.46640841
      0.94200000	      5.49925540	     -2.18083205	      5.26554330	     -0.40208738	      1.04667778	      0.35759193	     -5.18255843	      9.37862679	      1.64482467	     -8.27879445	      5.17755699	    -11.18686928	      5.60925797	     19.40075103	     -5.10715551	     -2.48002196	    -45.64742317	      5.77140395	     -6.63691140	     -2.35304157	     -8.89258945	     -1.47764213	      3.84182749
      0.94616667	      5.43559535	     -2.16189500	      4.98615872	     -0.39728267	      1.04660896	      0.35794330	     -5.51852084	      9.34181499	      1.91442662	     -8.09515428	      5.31405660	    -11.08961763	      5.55649364	     19.48540061	     -5.04181152	     -2.71000742	    -44.12898206	      5.68773921	     -6.90810104	     -2.43510605	     -8.84954398	     -1.50301782	      4.15168135
      0.95033333	      5.34641445	     -2.15409917	      4.71071714	     -0.39247049	      1.04645423	      0.35827364	     -5.82144392	      9.31208279	      2.18365654	     -7.92054975	      5.45077608	    -10.99517833	      5.49723252	     19.58333446	     -4.98151090	     -2.92902957	    -42.57635881	      5.57955669	     -7.20681413	     -2.52583185	     -8.77741386	     -1.51626093	      4.46030299
      0.95450000	      5.27554705	     -2.14976615	      4.43975158	     -0.38765334	      1.04629181	      0.35859033	     -6.14082443	      9.28521704	      2.44305181	     -7.75259357	      5.59394148	    -10.90602369	      5.43788183	     19.63977416	     -4.92596970	     -3.14650143	    -40.98016975	      5.46099832	     -7.49946216	     -2.61728491	     -8.71828272	     -1.52524461	      4.74862631
